<?xml version='1.0' encoding='utf-8'?>
<mxfile host="app.diagrams.net">
  <diagram name="Network Architecture" id="network">
    <mxGraphModel dx="2500" dy="1600" grid="1" gridSize="10">
      <root>
        <mxCell id="0" />
        <mxCell id="1" parent="0" />
        <mxCell id="2" value="BMC_INPUT - Network Architecture &amp; VPC" style="rounded=0;whiteSpace=wrap;html=1;fillColor=#232F3E;fontColor=#FFFFFF;fontSize=18;fontStyle=1;" vertex="1" parent="1">
          <mxGeometry x="50" y="20" width="2400" height="50" as="geometry" />
        </mxCell>
        <mxCell id="3" value="Internet" style="sketch=0;outlineConnect=0;fontColor=#232F3E;gradientColor=none;fillColor=#232F3D;strokeColor=none;dashed=0;verticalLabelPosition=bottom;verticalAlign=top;align=center;html=1;fontSize=12;fontStyle=0;aspect=fixed;pointerEvents=1;shape=mxgraph.aws4.internet_gateway;" vertex="1" parent="1">
          <mxGeometry x="100" y="100" width="78" height="78" as="geometry" />
        </mxCell>
        <mxCell id="4" value="BMC Users\n10K concurrent" style="sketch=0;outlineConnect=0;fontColor=#232F3E;gradientColor=none;fillColor=#232F3D;strokeColor=none;dashed=0;verticalLabelPosition=bottom;verticalAlign=top;align=center;html=1;fontSize=12;fontStyle=0;aspect=fixed;pointerEvents=1;shape=mxgraph.aws4.users;" vertex="1" parent="1">
          <mxGeometry x="300" y="100" width="78" height="78" as="geometry" />
        </mxCell>
        <mxCell id="5" value="AWS Cloud - us-east-1" style="fillColor=#E3F2FD;strokeColor=#1976D2;dashed=1;verticalAlign=top;fontStyle=1;fontColor=#1976D2;whiteSpace=wrap;html=1;fontSize=14;" vertex="1" parent="1">
          <mxGeometry x="50" y="220" width="2300" height="1300" as="geometry" />
        </mxCell>
        <mxCell id="6" value="VPC 10.0.0.0/16" style="fillColor=#F5F5F5;strokeColor=#666666;dashed=1;verticalAlign=top;fontStyle=1;fontColor=#666666;whiteSpace=wrap;html=1;fontSize=12;" vertex="1" parent="5">
          <mxGeometry x="50" y="200" width="2100" height="1000" as="geometry" />
        </mxCell>
        <mxCell id="7" value="AZ us-east-1a" style="fillColor=#E8F5E8;strokeColor=#4CAF50;dashed=1;verticalAlign=top;fontStyle=1;fontColor=#4CAF50;whiteSpace=wrap;html=1;fontSize=11;" vertex="1" parent="6">
          <mxGeometry x="50" y="50" width="900" height="900" as="geometry" />
        </mxCell>
        <mxCell id="8" value="Public Subnet\n10.0.1.0/24" style="fillColor=#E8F5E8;strokeColor=#4CAF50;dashed=2;verticalAlign=top;fontStyle=0;fontColor=#4CAF50;whiteSpace=wrap;html=1;fontSize=10;" vertex="1" parent="7">
          <mxGeometry x="50" y="50" width="350" height="150" as="geometry" />
        </mxCell>
        <mxCell id="9" value="NAT Gateway 1A" style="sketch=0;points=[[0,0,0],[0.25,0,0],[0.5,0,0],[0.75,0,0],[1,0,0],[0,1,0],[0.25,1,0],[0.5,1,0],[0.75,1,0],[1,1,0],[0,0.25,0],[0,0.5,0],[0,0.75,0],[1,0.25,0],[1,0.5,0],[1,0.75,0]];outlineConnect=0;fontColor=#232F3E;gradientColor=#8C4FFF;gradientDirection=north;fillColor=#5A30B5;strokeColor=#ffffff;dashed=0;verticalLabelPosition=bottom;verticalAlign=top;align=center;html=1;fontSize=12;fontStyle=0;aspect=fixed;shape=mxgraph.aws4.resourceIcon;resIcon=mxgraph.aws4.elastic_load_balancing;" vertex="1" parent="8">
          <mxGeometry x="50" y="60" width="78" height="78" as="geometry" />
        </mxCell>
        <mxCell id="10" value="Private Subnet\n10.0.10.0/24" style="fillColor=#FFF3E0;strokeColor=#FF9800;dashed=2;verticalAlign=top;fontStyle=0;fontColor=#FF9800;whiteSpace=wrap;html=1;fontSize=10;" vertex="1" parent="7">
          <mxGeometry x="50" y="250" width="350" height="200" as="geometry" />
        </mxCell>
        <mxCell id="11" value="App Services 1A" style="sketch=0;points=[[0,0,0],[0.25,0,0],[0.5,0,0],[0.75,0,0],[1,0,0],[0,1,0],[0.25,1,0],[0.5,1,0],[0.75,1,0],[1,1,0],[0,0.25,0],[0,0.5,0],[0,0.75,0],[1,0.25,0],[1,0.5,0],[1,0.75,0]];outlineConnect=0;fontColor=#232F3E;gradientColor=#F78E04;gradientDirection=north;fillColor=#D05C17;strokeColor=#ffffff;dashed=0;verticalLabelPosition=bottom;verticalAlign=top;align=center;html=1;fontSize=12;fontStyle=0;aspect=fixed;shape=mxgraph.aws4.resourceIcon;resIcon=mxgraph.aws4.fargate;" vertex="1" parent="10">
          <mxGeometry x="50" y="80" width="78" height="78" as="geometry" />
        </mxCell>
        <mxCell id="12" value="Isolated Subnet\n10.0.20.0/24" style="fillColor=#FFEBEE;strokeColor=#F44336;dashed=2;verticalAlign=top;fontStyle=0;fontColor=#F44336;whiteSpace=wrap;html=1;fontSize=10;" vertex="1" parent="7">
          <mxGeometry x="50" y="500" width="350" height="150" as="geometry" />
        </mxCell>
        <mxCell id="13" value="RDS Primary\nus-east-1a" style="sketch=0;points=[[0,0,0],[0.25,0,0],[0.5,0,0],[0.75,0,0],[1,0,0],[0,1,0],[0.25,1,0],[0.5,1,0],[0.75,1,0],[1,1,0],[0,0.25,0],[0,0.5,0],[0,0.75,0],[1,0.25,0],[1,0.5,0],[1,0.75,0]];outlineConnect=0;fontColor=#232F3E;gradientColor=#4AB29A;gradientDirection=north;fillColor=#116D5B;strokeColor=#ffffff;dashed=0;verticalLabelPosition=bottom;verticalAlign=top;align=center;html=1;fontSize=12;fontStyle=0;aspect=fixed;shape=mxgraph.aws4.resourceIcon;resIcon=mxgraph.aws4.rds;" vertex="1" parent="12">
          <mxGeometry x="50" y="60" width="78" height="78" as="geometry" />
        </mxCell>
        <mxCell id="14" value="AZ us-east-1b" style="fillColor=#FFF3E0;strokeColor=#FF9800;dashed=1;verticalAlign=top;fontStyle=1;fontColor=#FF9800;whiteSpace=wrap;html=1;fontSize=11;" vertex="1" parent="6">
          <mxGeometry x="1000" y="50" width="900" height="900" as="geometry" />
        </mxCell>
        <mxCell id="15" value="RDS Standby\nus-east-1b" style="sketch=0;points=[[0,0,0],[0.25,0,0],[0.5,0,0],[0.75,0,0],[1,0,0],[0,1,0],[0.25,1,0],[0.5,1,0],[0.75,1,0],[1,1,0],[0,0.25,0],[0,0.5,0],[0,0.75,0],[1,0.25,0],[1,0.5,0],[1,0.75,0]];outlineConnect=0;fontColor=#232F3E;gradientColor=#4AB29A;gradientDirection=north;fillColor=#116D5B;strokeColor=#ffffff;dashed=0;verticalLabelPosition=bottom;verticalAlign=top;align=center;html=1;fontSize=12;fontStyle=0;aspect=fixed;shape=mxgraph.aws4.resourceIcon;resIcon=mxgraph.aws4.rds;" vertex="1" parent="14">
          <mxGeometry x="100" y="600" width="78" height="78" as="geometry" />
        </mxCell>
        <mxCell id="16" value="Edge Layer" style="fillColor=#FFEBEE;strokeColor=#F44336;dashed=1;verticalAlign=top;fontStyle=1;fontColor=#F44336;whiteSpace=wrap;html=1;fontSize=11;" vertex="1" parent="5">
          <mxGeometry x="50" y="50" width="500" height="120" as="geometry" />
        </mxCell>
        <mxCell id="17" value="CloudFront CDN\nGlobal Edge" style="sketch=0;points=[[0,0,0],[0.25,0,0],[0.5,0,0],[0.75,0,0],[1,0,0],[0,1,0],[0.25,1,0],[0.5,1,0],[0.75,1,0],[1,1,0],[0,0.25,0],[0,0.5,0],[0,0.75,0],[1,0.25,0],[1,0.5,0],[1,0.75,0]];outlineConnect=0;fontColor=#232F3E;gradientColor=#945DF2;gradientDirection=north;fillColor=#5A30B5;strokeColor=#ffffff;dashed=0;verticalLabelPosition=bottom;verticalAlign=top;align=center;html=1;fontSize=12;fontStyle=0;aspect=fixed;shape=mxgraph.aws4.resourceIcon;resIcon=mxgraph.aws4.cloudfront;" vertex="1" parent="16">
          <mxGeometry x="50" y="40" width="78" height="78" as="geometry" />
        </mxCell>
        <mxCell id="18" value="AWS WAF\nDDoS Protection" style="sketch=0;points=[[0,0,0],[0.25,0,0],[0.5,0,0],[0.75,0,0],[1,0,0],[0,1,0],[0.25,1,0],[0.5,1,0],[0.75,1,0],[1,1,0],[0,0.25,0],[0,0.5,0],[0,0.75,0],[1,0.25,0],[1,0.5,0],[1,0.75,0]];outlineConnect=0;fontColor=#232F3E;gradientColor=#F54749;gradientDirection=north;fillColor=#C7131F;strokeColor=#ffffff;dashed=0;verticalLabelPosition=bottom;verticalAlign=top;align=center;html=1;fontSize=12;fontStyle=0;aspect=fixed;shape=mxgraph.aws4.resourceIcon;resIcon=mxgraph.aws4.waf;" vertex="1" parent="16">
          <mxGeometry x="180" y="40" width="78" height="78" as="geometry" />
        </mxCell>
        <mxCell id="19" value="API Layer" style="fillColor=#F3E5F5;strokeColor=#9C27B0;dashed=1;verticalAlign=top;fontStyle=1;fontColor=#9C27B0;whiteSpace=wrap;html=1;fontSize=11;" vertex="1" parent="5">
          <mxGeometry x="600" y="50" width="500" height="120" as="geometry" />
        </mxCell>
        <mxCell id="20" value="API Gateway\nREST + GraphQL" style="sketch=0;points=[[0,0,0],[0.25,0,0],[0.5,0,0],[0.75,0,0],[1,0,0],[0,1,0],[0.25,1,0],[0.5,1,0],[0.75,1,0],[1,1,0],[0,0.25,0],[0,0.5,0],[0,0.75,0],[1,0.25,0],[1,0.5,0],[1,0.75,0]];outlineConnect=0;fontColor=#232F3E;gradientColor=#945DF2;gradientDirection=north;fillColor=#5A30B5;strokeColor=#ffffff;dashed=0;verticalLabelPosition=bottom;verticalAlign=top;align=center;html=1;fontSize=12;fontStyle=0;aspect=fixed;shape=mxgraph.aws4.resourceIcon;resIcon=mxgraph.aws4.api_gateway;" vertex="1" parent="19">
          <mxGeometry x="50" y="40" width="78" height="78" as="geometry" />
        </mxCell>
        <mxCell id="21" value="Cognito\nUser Pool" style="sketch=0;points=[[0,0,0],[0.25,0,0],[0.5,0,0],[0.75,0,0],[1,0,0],[0,1,0],[0.25,1,0],[0.5,1,0],[0.75,1,0],[1,1,0],[0,0.25,0],[0,0.5,0],[0,0.75,0],[1,0.25,0],[1,0.5,0],[1,0.75,0]];outlineConnect=0;fontColor=#232F3E;gradientColor=#F54749;gradientDirection=north;fillColor=#C7131F;strokeColor=#ffffff;dashed=0;verticalLabelPosition=bottom;verticalAlign=top;align=center;html=1;fontSize=12;fontStyle=0;aspect=fixed;shape=mxgraph.aws4.resourceIcon;resIcon=mxgraph.aws4.cognito;" vertex="1" parent="19">
          <mxGeometry x="180" y="40" width="78" height="78" as="geometry" />
        </mxCell>
        <mxCell id="22" value="Application LB\nMulti-AZ" style="sketch=0;points=[[0,0,0],[0.25,0,0],[0.5,0,0],[0.75,0,0],[1,0,0],[0,1,0],[0.25,1,0],[0.5,1,0],[0.75,1,0],[1,1,0],[0,0.25,0],[0,0.5,0],[0,0.75,0],[1,0.25,0],[1,0.5,0],[1,0.75,0]];outlineConnect=0;fontColor=#232F3E;gradientColor=#8C4FFF;gradientDirection=north;fillColor=#5A30B5;strokeColor=#ffffff;dashed=0;verticalLabelPosition=bottom;verticalAlign=top;align=center;html=1;fontSize=12;fontStyle=0;aspect=fixed;shape=mxgraph.aws4.resourceIcon;resIcon=mxgraph.aws4.elastic_load_balancing;" vertex="1" parent="19">
          <mxGeometry x="310" y="40" width="78" height="78" as="geometry" />
        </mxCell>
        <mxCell id="23" value="" style="endArrow=classic;html=1;rounded=0;strokeColor=#232F3E;strokeWidth=3;" edge="1" parent="1" source="4" target="3">
          <mxGeometry width="50" height="50" relative="1" as="geometry" />
        </mxCell>
        <mxCell id="24" value="" style="endArrow=classic;html=1;rounded=0;strokeColor=#232F3E;strokeWidth=3;" edge="1" parent="1" source="3" target="17">
          <mxGeometry width="50" height="50" relative="1" as="geometry" />
        </mxCell>
        <mxCell id="25" value="" style="endArrow=classic;html=1;rounded=0;strokeColor=#F44336;strokeWidth=2;" edge="1" parent="1" source="17" target="18">
          <mxGeometry width="50" height="50" relative="1" as="geometry" />
        </mxCell>
        <mxCell id="26" value="" style="endArrow=classic;html=1;rounded=0;strokeColor=#232F3E;strokeWidth=2;" edge="1" parent="1" source="18" target="20">
          <mxGeometry width="50" height="50" relative="1" as="geometry" />
        </mxCell>
        <mxCell id="27" value="" style="endArrow=classic;html=1;rounded=0;strokeColor=#FF9900;strokeWidth=2;" edge="1" parent="1" source="20" target="21">
          <mxGeometry width="50" height="50" relative="1" as="geometry" />
        </mxCell>
        <mxCell id="28" value="" style="endArrow=classic;html=1;rounded=0;strokeColor=#232F3E;strokeWidth=2;" edge="1" parent="1" source="20" target="22">
          <mxGeometry width="50" height="50" relative="1" as="geometry" />
        </mxCell>
        <mxCell id="29" value="" style="endArrow=classic;html=1;rounded=0;strokeColor=#2196F3;strokeWidth=2;" edge="1" parent="1" source="22" target="11">
          <mxGeometry width="50" height="50" relative="1" as="geometry" />
        </mxCell>
        <mxCell id="30" value="" style="endArrow=classic;html=1;rounded=0;strokeColor=#2196F3;strokeWidth=2;" edge="1" parent="1" source="11" target="13">
          <mxGeometry width="50" height="50" relative="1" as="geometry" />
        </mxCell>
        <mxCell id="31" value="" style="endArrow=classic;html=1;rounded=0;strokeColor=#FF9800;strokeWidth=2;" edge="1" parent="1" source="13" target="15">
          <mxGeometry width="50" height="50" relative="1" as="geometry" />
        </mxCell>
      </root>
    </mxGraphModel>
  </diagram>
</mxfile>